<svg width="501" height="412" viewBox="0 0 501 412" fill="none" xmlns="http://www.w3.org/2000/svg"><path d="m416.29 280.44 2.12-203.42H295.46l-161.56 98H76.78V399h422.28V287l-82.77-6.57Z" fill="#202123"/><path d="M498.78 399.94H77.06c-.32 0-.63-.1-.86-.26a.79.79 0 0 1-.36-.63V174.99a.8.8 0 0 1 .36-.63c.23-.16.54-.26.86-.26h56.6l161-97.8c.22-.14.5-.21.79-.21h122.78c.32 0 .63.1.86.27a.9.9 0 0 1 .27.29c.06.1.1.23.1.35l-2.13 202.71 81.57 6.42c.3.02.58.12.78.29.2.15.32.37.32.58v112.03a.8.8 0 0 1-.35.64 1.5 1.5 0 0 1-.87.27ZM78.3 398.16h419.26V287.9l-81.6-6.47c-.3-.02-.57-.13-.77-.3a.75.75 0 0 1-.3-.6l2.13-202.53H295.89l-161 97.8c-.23.13-.5.2-.78.2H78.3v222.15Z" fill="#202123"/><path d="M314.6 77.02h-50.56v13.92h50.57V77.02Z" fill="#fff"/><path d="M314.32 91.86H263.4c-.32 0-.63-.09-.86-.26a.79.79 0 0 1-.36-.62v-14c0-.24.13-.46.36-.63.23-.17.54-.26.86-.26h50.93c.32 0 .63.1.86.27.23.16.36.38.36.62v14c0 .23-.13.46-.36.62-.22.17-.53.26-.86.26Zm-49.7-1.77h48.48V77.87h-48.49v12.22Z" fill="#B8BABF"/><path d="M288.39 90.94h-58.05v13.92h58.05V90.94Z" fill="#fff"/><path d="M288.1 105.78H229.7c-.32 0-.64-.09-.87-.26a.79.79 0 0 1-.35-.63v-14c0-.23.12-.45.35-.62.23-.17.55-.26.87-.26h58.41c.33 0 .64.1.87.26.23.17.36.4.36.63v14c0 .23-.13.46-.36.62-.23.17-.54.26-.87.26Zm-57.19-1.77h55.97V91.79H230.9V104Z" fill="#B8BABF"/><path d="M274.35 104.86h-69.3v13.91h69.3v-13.91Z" fill="#fff"/><path d="M274.99 119.7H204.4c-.32 0-.64-.1-.87-.26a.79.79 0 0 1-.36-.63v-14c0-.23.13-.45.36-.62.23-.17.55-.26.87-.26H275c.32 0 .64.1.87.26.23.17.36.4.36.63v14c0 .23-.13.46-.36.62a1.5 1.5 0 0 1-.87.26Zm-69.35-1.78h68.12v-12.21h-68.12v12.21Z" fill="#B8BABF"/><path d="M257.49 118.77h-76.78v13.92h76.78v-13.92Z" fill="#fff"/><path d="M257.22 133.62h-76.24c-.32 0-.62-.1-.85-.26a.8.8 0 0 1-.35-.63v-14a.8.8 0 0 1 .35-.62c.23-.17.53-.26.86-.26h76.23c.32 0 .63.09.85.26.23.16.36.39.36.63v14a.8.8 0 0 1-.36.62c-.22.17-.53.26-.85.26Zm-75.03-1.78h73.82v-12.22h-73.86l.04 12.22Z" fill="#B8BABF"/><path d="M238.76 132.7h-83.33v13.91h83.33V132.7Z" fill="#fff"/><path d="M239.42 147.54h-83.7c-.33 0-.63-.1-.86-.26a.8.8 0 0 1-.37-.63v-14a.8.8 0 0 1 .37-.62c.23-.16.53-.26.85-.26h83.7c.33 0 .63.1.86.26a.8.8 0 0 1 .37.62v14a.8.8 0 0 1-.37.63 1.5 1.5 0 0 1-.85.26Zm-82.58-1.78h81.35v-12.22h-81.25l-.1 12.22Z" fill="#B8BABF"/><path d="M214.42 146.61H113.3v13.92h101.12v-13.92Z" fill="#fff"/><path d="M215.07 161.46h-101.5c-.32 0-.63-.1-.85-.26a.8.8 0 0 1-.36-.63v-14a.8.8 0 0 1 .36-.63c.22-.16.53-.25.86-.25h101.5c.32 0 .63.09.86.25.22.17.35.4.35.63v14a.8.8 0 0 1-.35.63c-.23.17-.54.26-.87.26Zm-100.28-1.78h99.07v-12.22h-99.07v12.22Z" fill="#B8BABF"/><path d="M187.27 160.53H76.77v14.85h110.5v-14.85Z" fill="#fff"/><path d="M187.92 175.38H77.06c-.32 0-.63-.1-.86-.26a.8.8 0 0 1-.36-.63v-14a.8.8 0 0 1 .36-.63c.23-.16.54-.26.86-.26h110.86c.33 0 .63.1.86.26.23.17.36.4.36.63v14a.8.8 0 0 1-.36.63c-.23.16-.53.26-.86.26ZM78.3 173.6h108.33v-12.22H78.3v12.22Z" fill="#B8BABF"/><path d="M115.17 189.3h110.48v-13.92H115.17v13.92Z" fill="#fff"/><path d="M226.3 190.22H115.46c-.32 0-.63-.09-.86-.25a.8.8 0 0 1-.36-.63v-14c0-.24.13-.46.36-.63.23-.17.54-.26.86-.26h110.86c.32 0 .63.1.86.26.23.17.36.4.36.63v14c0 .23-.13.46-.36.63-.23.16-.54.25-.86.25Zm-109.73-1.77H225v-12.22H116.67l-.1 12.22Z" fill="#B8BABF"/><path d="M133.9 203.22h126.4V189.3H133.9v13.92Z" fill="#fff"/><path d="M260.95 204.14H134.19c-.33 0-.64-.09-.86-.26a.79.79 0 0 1-.36-.62v-14c0-.24.13-.46.36-.63.22-.17.53-.26.86-.26h126.77c.33 0 .64.1.87.26.22.17.35.4.35.63v14a.8.8 0 0 1-.35.62c-.23.17-.54.26-.87.26Zm-125.55-1.77h124.34v-12.22H135.4v12.22Z" fill="#B8BABF"/><path d="M153.56 217.13h141.38v-13.91H153.56v13.91Z" fill="#fff"/><path d="M294.67 218.06H153.83c-.32 0-.63-.1-.85-.26a.79.79 0 0 1-.36-.63v-14c0-.23.13-.45.36-.62.22-.17.53-.26.86-.26h140.83c.32 0 .63.1.85.26.23.16.36.4.36.63v14c0 .23-.13.46-.36.62-.22.17-.53.26-.85.26Zm-139.62-1.78h138.4v-12.21h-138.4v12.21Z" fill="#B8BABF"/><path d="M170.41 231.05h160.11v-13.92h-160.1v13.92Z" fill="#fff"/><path d="M331.17 231.98H170.7c-.32 0-.63-.1-.86-.26a.79.79 0 0 1-.36-.63v-14c0-.23.13-.46.36-.62.23-.17.54-.26.86-.26h160.48c.33 0 .64.1.87.26.22.16.35.39.35.63v13.92c.02.12 0 .25-.06.36a.9.9 0 0 1-.26.32 1.3 1.3 0 0 1-.4.2c-.16.06-.33.08-.5.08Zm-159.26-1.78h158.04V218H171.91v12.21Z" fill="#B8BABF"/><path d="M191.95 244.97H363.3v-13.92H191.95v13.92Z" fill="#fff"/><path d="M363.01 245.9H191.29c-.32 0-.63-.1-.85-.26a.8.8 0 0 1-.37-.62V231a.8.8 0 0 1 .37-.62c.22-.16.53-.26.85-.26h171.72c.32 0 .63.09.86.25.23.17.36.4.36.63v13.94c.01.12-.01.24-.07.36a.88.88 0 0 1-.25.3c-.12.1-.26.17-.41.22-.15.05-.32.07-.49.07Zm-170.48-1.77h169.29v-12.16h-169.4l.11 12.16Z" fill="#B8BABF"/><path d="M215.35 258.9h194.76v-13.93H215.35v13.92Z" fill="#fff"/><path d="M409.83 259.82H214.7c-.32 0-.63-.1-.86-.26a.8.8 0 0 1-.36-.63v-14a.8.8 0 0 1 .36-.63c.23-.16.54-.26.86-.26h195.13c.32 0 .63.1.86.27.23.16.36.39.36.62v14a.8.8 0 0 1-.36.63c-.23.17-.54.26-.86.26Zm-193.9-1.78H408.6v-12.22H215.92v12.22Z" fill="#B8BABF"/><path d="M253.75 272.81h206.92V258.9H253.74v13.92Z" fill="#fff"/><path d="M460.4 273.74H254.02c-.33 0-.64-.1-.86-.26a.79.79 0 0 1-.36-.63v-14c0-.23.13-.46.36-.63.22-.16.53-.26.86-.26h206.36c.32 0 .63.1.86.26.23.17.36.4.36.63v14c0 .23-.13.46-.36.63-.23.16-.54.26-.86.26Zm-205.15-1.78h203.92v-12.22H255.25v12.22Z" fill="#B8BABF"/><path d="M302.44 286.73h196.62V272.8H302.43v13.92Z" fill="#fff"/><path d="M498.76 287.66H302.71c-.32 0-.63-.1-.86-.26a.8.8 0 0 1-.35-.63v-14a.8.8 0 0 1 .35-.63c.23-.16.54-.26.86-.26h196.07c.33 0 .64.1.86.26.23.17.36.4.36.63v14c0 .12-.03.23-.1.34-.06.11-.15.21-.26.3-.12.08-.26.14-.4.19-.16.04-.32.06-.48.06Zm-194.86-1.78h193.64v-12.22H303.9v12.22Z" fill="#B8BABF"/><path d="M276.22 300.65h196.63v-13.92H276.22v13.92Z" fill="#fff"/><path d="M473.5 301.58h-197c-.32 0-.63-.1-.86-.26a.79.79 0 0 1-.36-.63v-14c0-.24.13-.46.36-.63.23-.17.54-.26.86-.26h197c.32 0 .63.1.86.26.23.17.36.4.36.63v14c0 .12-.03.23-.1.34-.06.1-.14.2-.26.29a1.61 1.61 0 0 1-.86.26Zm-195.78-1.78h194.56v-12.28H277.82l-.1 12.28Z" fill="#B8BABF"/><path d="M243.44 314.57h201.32v-13.92H243.45v13.92Z" fill="#fff"/><path d="M444.48 315.5H243.73c-.33 0-.63-.1-.86-.26a.8.8 0 0 1-.36-.63v-14a.8.8 0 0 1 .36-.63c.22-.17.53-.26.86-.26h200.75c.32 0 .63.1.86.26.23.17.35.4.35.63v14a.8.8 0 0 1-.35.63c-.23.16-.54.25-.86.25Zm-199.66-1.78h198.32V301.5h-198.2l-.12 12.22Z" fill="#B8BABF"/><path d="M205.06 328.49h223.78v-13.92H205.06v13.92Z" fill="#fff"/><path d="M428.56 329.41H205.34c-.33 0-.64-.09-.87-.26a.8.8 0 0 1-.35-.63v-14a.8.8 0 0 1 .35-.62c.23-.17.54-.26.87-.26h223.22c.32 0 .63.1.86.26.23.17.35.4.35.63v14a.8.8 0 0 1-.35.62c-.23.17-.54.26-.86.26Zm-222.06-1.77h220.84v-12.22H206.55l-.05 12.22Z" fill="#B8BABF"/><path d="M158.24 342.4H410.1V328.5H158.24v13.91Z" fill="#fff"/><path d="M409.83 343.33H158.52c-.32 0-.63-.1-.86-.26a.79.79 0 0 1-.35-.62v-14c0-.24.12-.47.35-.63.23-.17.54-.26.86-.26h251.31c.32 0 .63.1.86.26.23.16.36.39.36.62v13.95a.67.67 0 0 1-.07.36.88.88 0 0 1-.26.3 1.3 1.3 0 0 1-.4.21 1.6 1.6 0 0 1-.49.07Zm-250.1-1.77h248.89v-12.18H159.74v12.18Z" fill="#B8BABF"/><path d="M112.36 357.25H355.8v-13.92H112.36v13.92Z" fill="#fff"/><path d="M355.52 358.18H112.64c-.32 0-.63-.1-.86-.26a.8.8 0 0 1-.36-.63v-14c0-.23.13-.46.36-.62.23-.17.54-.27.86-.27h242.88c.33 0 .64.1.87.27.22.16.35.39.35.62v14c0 .24-.13.46-.36.63-.22.17-.53.26-.86.26Zm-241.66-1.78H354.3v-12.22H113.86v12.22Z" fill="#B8BABF"/><path d="M66.48 371.17h270.6v-13.92H66.48v13.92Z" fill="#fff"/><path d="M336.8 372.1H66.76c-.32 0-.63-.1-.86-.26a.79.79 0 0 1-.36-.63v-14c0-.23.13-.46.36-.63.23-.16.54-.26.86-.26H336.8c.32 0 .63.1.86.26.23.17.35.4.35.63v13.97c.01.12-.02.24-.07.35a.92.92 0 0 1-.26.3 1.3 1.3 0 0 1-.4.2c-.16.05-.32.07-.48.07Zm-268.78-1.78h267.61v-12.19H68.03v12.2Z" fill="#B8BABF"/><path d="M42.14 385.09h270.6v-13.92H42.13v13.92Z" fill="#fff"/><path d="M312.45 386.02H42.43c-.33 0-.64-.1-.86-.26a.8.8 0 0 1-.36-.63v-14c0-.23.13-.46.36-.63.22-.16.53-.26.86-.26h270.03c.33 0 .64.1.87.26.22.17.35.4.35.63v14a.8.8 0 0 1-.36.63c-.22.16-.53.26-.86.26Zm-268.77-1.78h267.6v-12.22H43.69v12.22Z" fill="#B8BABF"/><path d="M.94 399h270.6V385.1H.94v13.92Z" fill="#fff"/><path d="M271.26 399.94H1.22c-.33 0-.64-.1-.86-.26a.8.8 0 0 1-.36-.63v-14a.8.8 0 0 1 .36-.63c.22-.16.53-.26.86-.26h270.04c.32 0 .63.1.86.26.22.17.35.4.35.63v14a.8.8 0 0 1-.35.63c-.23.16-.54.26-.86.26ZM2.48 398.16h267.6v-12.22H2.49v12.22Z" fill="#B8BABF"/><path d="M300.62 50.55a.82.82 0 0 1-.78-.6c-.35-1.4-3.28-13.71 2.03-15.65 1.77-.68 11.98 0 14 0a.78.78 0 0 1 .75.85.81.81 0 0 1-.86.77c-4.52-.29-12.15-.6-13.32-.16-3.34 1.22-1.78 10.54-1.02 13.7a.84.84 0 0 1-.58 1l-.22.1ZM331.78 71.5a.9.9 0 0 1-.9-.88V55.78a.89.89 0 1 1 1.78 0v14.84a.9.9 0 0 1-.88.89Z" fill="#202123"/><path d="M319.05 78.36a.89.89 0 0 1-.66-.3.85.85 0 0 1-.2-.97c.05-.1.12-.2.2-.28.29-.25 6.8-6.03 13.14-6.03h.16c4.75 0 11.8 5.74 12.1 6a.9.9 0 0 1-.47 1.57.89.89 0 0 1-.64-.19s-6.77-5.6-10.92-5.6c-5.75 0-12.02 5.51-12.09 5.57a.82.82 0 0 1-.62.23Z" fill="#202123"/><path d="M356.1 1.6c-.12.45-31.96-3.1-35.37 2-9.26 13.64-3.85 46.8-3.85 46.8h29.38s4.99-38.16 7.54-41.42a11.98 11.98 0 0 0 2.3-7.38Z" fill="#fff"/><path d="M346.26 51.21h-29.38a.81.81 0 0 1-.8-.67c-.22-1.37-5.32-33.64 3.98-47.4 2.6-3.81 16.85-3.46 31.95-2.52a73.05 73.05 0 0 0 4.23.22.78.78 0 0 1 .72.74c.1 2.85-.77 5.64-2.45 7.94-1.77 2.26-5.32 25.77-7.38 41.02a.8.8 0 0 1-.87.67Zm-28.68-1.63h27.97c.83-6.25 5.11-37.9 7.62-41.11a10.98 10.98 0 0 0 2.1-6.03c-.72 0-1.77 0-3.44-.18-6.92-.44-28-1.78-30.42 1.78-8.27 12.17-4.53 40.77-3.83 45.54Z" fill="#202123"/><path d="M348.7 10.44c-3.36 14.86-2.44 39.95-2.44 39.95h7.1l7.95-42.88c.92-4.63-9.25-11.92-12.6 2.93Z" fill="#fff"/><path d="M353.43 51.21h-7.1a.8.8 0 0 1-.8-.78c0-.25-.89-25.38 2.45-40.16 2.18-9.68 7-9.79 8.88-9.38 3.19.66 5.82 4 5.32 6.76-1.78 9.3-7.97 42.89-7.97 42.89a.8.8 0 0 1-.78.67Zm-6.39-1.63h5.73c.87-4.75 6.25-33.7 7.83-42.21.35-1.9-1.78-4.4-4.05-4.88-3.16-.66-5.71 2.31-7.1 8.13-2.93 13.11-2.52 34.62-2.41 38.96Z" fill="#202123"/><path d="M308.5 50.4h44.93s-.82 7.82-2.77 8.14c-1.95.32-35.16 0-37.91 0s-4.24-8.15-4.24-8.15Z" fill="#fff"/><path d="M340.65 59.5c-6.21 0-14.6 0-23.23-.1h-4.67c-3.29 0-4.78-7.35-5.04-8.9a.83.83 0 0 1 .46-.88c.1-.05.22-.08.33-.08h44.93a.78.78 0 0 1 .58.29.8.8 0 0 1 .22.62c-.27 2.54-1.14 8.48-3.45 8.9-.67.12-4.52.15-10.13.15Zm-31.15-8.29c.67 3 2.02 6.53 3.25 6.53h4.67c8.64 0 31.6.21 33.1 0 .64-.16 1.54-3.22 1.99-6.53H309.5Z" fill="#202123"/><path d="M299.52 50.4h36.96s-.68 7.82-2.27 8.14c-1.6.32-28.92 0-31.2 0-2.3 0-3.49-8.15-3.49-8.15Z" fill="#fff"/><path d="M325.9 59.5c-5.11 0-11.96 0-19.03-.1h-3.85c-2.68 0-3.89-6.2-4.28-8.9a.83.83 0 0 1 .47-.87c.1-.05.22-.07.33-.07h36.96c.22 0 .44.1.6.26.15.18.22.4.21.63-.33 3.84-1.12 8.52-2.93 8.9-.58.12-3.8.15-8.48.15Zm-25.4-8.29c.62 3.56 1.77 6.53 2.52 6.53h3.85c7.1 0 25.92.21 27.2 0a17.6 17.6 0 0 0 1.54-6.55l-35.11.02Z" fill="#202123"/><path d="M330.96 50.55a.82.82 0 0 1-.78-.6c-.36-1.4-3.28-13.71 2.02-15.65 1.78-.68 11.98 0 14 0a.78.78 0 0 1 .75.85.81.81 0 0 1-.85.77c-4.53-.29-12.16-.6-13.33-.16-3.34 1.22-1.77 10.54-1.01 13.7a.84.84 0 0 1-.59 1l-.21.1Z" fill="#202123"/><path d="m268.15 211.47 29.98-17.77 21.83 37.44L291.49 250a386.45 386.45 0 0 0-3.5-5.98 5350.4 5350.4 0 0 0-19.34-31.74l-.5-.81Z" fill="#fff" stroke="#202123" stroke-width="2" stroke-linecap="round" stroke-linejoin="round"/><path d="M278.9 241.7a4.09 4.09 0 0 1-3.52-2.09l-4.72-8.24a4.21 4.21 0 0 1 1.36-5.6l2.68-1.77a.88.88 0 0 1 1.3.94.89.89 0 0 1-.35.55l-2.68 1.78a2.43 2.43 0 0 0-.78 3.23l4.66 8.17a2.37 2.37 0 0 0 3.19.93l3.17-1.78a.88.88 0 0 1 1.2.38.9.9 0 0 1-.37 1.2l-3.16 1.78c-.6.34-1.28.53-1.97.53ZM218.35 205.34c-1.85 0-3.53-2.16-4.07-5.32a8.74 8.74 0 0 1 .23-4.04 2.82 2.82 0 0 1 2.31-2.42 2.78 2.78 0 0 1 2.97 1.53 8.7 8.7 0 0 1 1.52 3.76c.55 3.3-.55 6.05-2.54 6.39l-.42.1Zm-1.15-9.9h-.08c-.38 0-.71.48-.94 1.16a6.78 6.78 0 0 0-.16 3.2c.4 2.46 1.76 3.88 2.44 3.73.66-.14 1.47-1.77 1.07-4.34a6.88 6.88 0 0 0-1.16-2.95 1.77 1.77 0 0 0-1.17-.8Z" fill="#202123"/><path d="M215.54 199.44s5.79 4.68 5.3 6.17c-.5 1.49-3.37 1.54-3.37 1.54" fill="#fff"/><path d="M217.55 208.11a.88.88 0 0 1-.88-.89c0-.23.1-.46.26-.62a.88.88 0 0 1 .62-.26c.94 0 2.38-.36 2.52-.9a20.42 20.42 0 0 0-5.07-5.24.9.9 0 0 1 .46-1.58c.23-.02.47.05.65.2 2.85 2.3 6.15 5.32 5.67 7.1-.58 2.07-3.82 2.17-4.2 2.19h-.03Z" fill="#202123"/><path d="M212.58 191h0a8.33 8.33 0 0 0-3.22-.43c-1.13.03-2.31.2-3.37.4a36.38 36.38 0 0 0-3.55.85l-.23.07-.06.02h-.02 0v.01h0l.3.95-.3-.95a1 1 0 0 0-.45.29 21.54 21.54 0 0 0-5.08 10.53v.01c-.52 3.22.16 6.94.93 9.77a44.06 44.06 0 0 0 1.65 4.87v.03l2.03 8.26a1 1 0 0 0 .92.76l15.17.85a1 1 0 0 0 .98-1.4l-3.57-8.22.48-.1c.84-.2 1.8-.54 2.71-.97a8.5 8.5 0 0 0 2.44-1.65c.65-.67 1.18-1.62.9-2.74h0c-1.05-4.01-2.2-8.02-3.42-11.99h0a40.14 40.14 0 0 1-.65-2.32 24.8 24.8 0 0 0-.86-2.64c-.7-1.71-1.78-3.48-3.73-4.26Z" fill="#fff" stroke="#202123" stroke-width="2" stroke-linecap="round" stroke-linejoin="round"/><path d="M219.23 209.55a3.34 3.34 0 0 1-5.06.23" fill="#fff"/><path d="M216.53 211.85a4.1 4.1 0 0 1-2.98-1.38.86.86 0 0 1-.26-.63.89.89 0 0 1 .26-.63.88.88 0 0 1 1.24 0 2.52 2.52 0 0 0 1.76.87c.76-.1 1.45-.47 1.97-1.03a.88.88 0 0 1 1.47.54.9.9 0 0 1-.14.61 4.97 4.97 0 0 1-3.23 1.65h-.09ZM213.25 200.01c.3-.11.31-.82.02-1.58-.29-.76-.76-1.28-1.06-1.17-.3.12-.31.83-.03 1.58.3.76.77 1.29 1.07 1.17Z" fill="#202123"/><path d="m200.16 228.76-.23-4.74 17.98-2.68 4.44 7.35a75.8 75.8 0 0 1-22.2.07Z" fill="#fff"/><path d="M211.23 230.4c-3.74.01-7.48-.25-11.2-.77a.9.9 0 0 1-.76-.83l-.22-4.73a.9.9 0 0 1 .76-.92l17.98-2.7a.88.88 0 0 1 .88.43l4.44 7.35a.94.94 0 0 1 0 .81.93.93 0 0 1-.65.52c-3.72.6-7.47.88-11.23.85ZM201 227.99c6.6.84 13.29.84 19.9 0l-3.44-5.71-16.62 2.48.16 3.23Z" fill="#202123"/><path d="M264.3 246.14a56.61 56.61 0 0 0 3.85-6.54c.1-1.65.38-3.28.85-4.86.72-1.58 2.79-3.06 3.86-.98 0 0 .37-3.55 2.79-1.77a6.36 6.36 0 0 1 2.53 6.77c-.49 2.7-9.55 16.68-9.55 16.68" fill="#fff"/><path d="M264.3 246.14a56.61 56.61 0 0 0 3.85-6.54c.1-1.65.38-3.28.85-4.86.72-1.58 2.79-3.06 3.86-.98 0 0 .37-3.55 2.79-1.77a6.36 6.36 0 0 1 2.53 6.77c-.49 2.7-9.55 16.68-9.55 16.68" stroke="#202123" stroke-width="2" stroke-linecap="round" stroke-linejoin="round"/><path d="M132.7 285.06s-1.76 3.55-2.62 6.16a36.66 36.66 0 0 0-1.18 7.6c-.67-.77-1.77-.97-2.42-1.66a9.52 9.52 0 0 1-.77 3.21 3.33 3.33 0 0 1-2.49 1.95c-.6.03-1.2-.07-1.76-.28-2.01-.66-5.29-1.87-5.76-4.31-.1-.95.08-1.9.52-2.75 1.54-3.55 8.38-12.95 9.5-14.46" fill="#fff"/><path d="M122.98 303.2c-.6-.01-1.2-.12-1.77-.33-1.76-.57-5.81-1.88-6.36-4.98a5.7 5.7 0 0 1 .58-3.25c1.77-4 9.52-14.55 9.61-14.65a.88.88 0 0 1 1.57.4.91.91 0 0 1-.16.66c-2 2.7-8.04 11.09-9.4 14.28-.36.7-.52 1.47-.47 2.25.37 2.04 3.86 3.18 5.16 3.55.44.17.91.25 1.38.25a2.49 2.49 0 0 0 1.76-1.45c.39-.94.62-1.92.69-2.93a.87.87 0 0 1 1.5-.51c.27.24.57.43.9.58h.12c.15-2.13.52-4.23 1.11-6.28.93-2.64 2.6-6.1 2.66-6.24a.87.87 0 0 1 .83-.5c.12 0 .23.04.33.09a.89.89 0 0 1 .43 1.17s-1.76 3.55-2.6 6.07a37.57 37.57 0 0 0-1.14 7.38.86.86 0 0 1-.6.78.86.86 0 0 1-.95-.27c-.3-.3-.64-.53-1.02-.7a7.43 7.43 0 0 1-.66 2.1 4.14 4.14 0 0 1-3.2 2.43l-.3.1ZM240.47 357.31s-1.48 10.4 2.78 11.92c4.27 1.53 26.23-15.96 24.68-19.96-1.55-3.99-9-5.23-15.72 0a103.06 103.06 0 0 1-11.74 8.04Z" fill="#202123"/><path d="M243.8 370.17c-.3 0-.58-.05-.85-.14-4.81-1.77-3.52-11.74-3.35-12.88a.84.84 0 0 1 .44-.65 99.85 99.85 0 0 0 11.65-7.97 14.8 14.8 0 0 1 12.62-3.24 6.37 6.37 0 0 1 4.46 3.63c.37.92.35 2.7-3.96 7.1-5.01 5.27-16.41 14.15-21.01 14.15Zm-2.53-12.42c-.31 2.84-.5 9.55 2.28 10.54 2.29.82 13.5-6.76 19.99-13.5 3.98-4.13 3.52-5.32 3.52-5.32a4.68 4.68 0 0 0-3.3-2.55 12.94 12.94 0 0 0-11.06 2.94c-3.63 2.9-7.45 5.57-11.42 7.97v-.07Z" fill="#202123"/><path d="M242.98 313.7a1 1 0 0 0-1.18-1.03c-9.6 1.8-20.9.94-29.86-.37a159.72 159.72 0 0 1-14.06-2.72l9.84-14.8h.02a463.04 463.04 0 0 1 6.78-.4c4.4-.25 10.34-.55 16.43-.77 6.09-.22 12.32-.36 17.34-.28 2.51.04 4.7.13 6.41.3.86.07 1.58.17 2.15.28.59.11.95.23 1.14.33 0 0 0 0 0 0 .01 0 .15.1.33.54.18.43.34 1.05.47 1.87.25 1.63.36 3.87.35 6.54a223.8 223.8 0 0 1-1.18 19.08A601.05 601.05 0 0 1 255 347l-.23 1.7-.05.34c-3.85 4.92-7.45 6.68-10.02 7.24a9.56 9.56 0 0 1-3.46.15l1.73-42.74Z" fill="#fff" stroke="#202123" stroke-width="2" stroke-linecap="round" stroke-linejoin="round"/><path d="M182.66 303.59h26.96l-.25.61-2.16 5.32c-1.79 4.43-4.2 10.42-6.69 16.65-4.96 12.42-10.25 25.86-11.43 29.67-.22.7-.98 1.78-2.34 3.2a60 60 0 0 1-5.25 4.67 233.9 233.9 0 0 1-15.05 10.96 545.96 545.96 0 0 1-20.6 13.3l-9.67-8.57.75-.66 4.28-3.72a8021.86 8021.86 0 0 1 26.35-22.8 569.02 569.02 0 0 1 5.97-5.04l.4-.32.13-.09-.02.01c.2-.1.33-.26.39-.34l.16-.27c.09-.16.16-.35.23-.54.14-.4.3-.92.45-1.55.33-1.26.71-3 1.13-5.06.84-4.1 1.83-9.5 2.78-14.88a1663.46 1663.46 0 0 0 3.32-19.56l.16-1Z" fill="#fff" stroke="#202123" stroke-width="2" stroke-linecap="round" stroke-linejoin="round"/><path d="m260.13 292.7 3.18.44-.49 1.2a153.97 153.97 0 0 1-14.2 26.32c-10.09 14.9-25.04 30.63-44.7 34.64h0c-3.28.67-7.61.28-12.35-.77a105.6 105.6 0 0 1-14.36-4.43 183.7 183.7 0 0 1-15.39-6.7l-.57-.28 16.7-57.02h45.37c7.2 1.83 17.48 3.63 25.96 4.97 4.27.68 8.1 1.23 10.85 1.63Z" fill="#fff" stroke="#202123" stroke-width="2" stroke-linecap="round" stroke-linejoin="round"/><path d="M230.05 231.53c2.22-7.1-3.98-13.8-32.68-8.25-6.94 1.34-11.98 7.55-16.69 9.61-.67 4.08-14.2 53.13-16.88 67 0 0 49.19 6.32 63.45-13.8-.09 0 .8-50.17 2.8-54.56Z" fill="#166CFB"/><path d="M190.44 222.5s-27.5 15.96-33.94 19.78c-6.44 3.8-35.5 41.03-35.5 41.03l11.16 8.99s24.67-28.58 29.36-31.2c4.69-2.63 28.92-13.6 28.92-13.6v-25ZM229.94 226.56l18.88 37.06 15.86-20.32 8.3 9.23s-13.95 27.6-20.69 27.48c-14.64-.3-34.03-30.53-34.03-30.53l11.68-22.92Z" fill="#166CFB"/><path d="M145.75 389.24c-.8-10.06-5.3-13.04-8.66-11.94-3.36 1.1-5.51 1.42-4.58 11.2.93 9.77 6.19 23.84 11.47 22.58 5.3-1.26 2.56-11.82 1.77-21.84Z" fill="#202123"/><path d="M143.3 412a4.6 4.6 0 0 1-2.72-.98c-4.37-3.13-8.16-14.19-8.95-22.47-.9-9.62 1.24-10.82 4.81-12.01l.4-.12a5.37 5.37 0 0 1 4.7.72c2.82 1.9 4.63 6.16 5.09 12 .18 2.12.42 4.29.67 6.38.99 8.16 1.76 15.2-3.1 16.37-.3.07-.6.11-.9.11Zm-4.88-34.06c-.36 0-.7.06-1.04.16l-.4.14c-2.85.94-4.41 1.46-3.52 10.15.74 7.75 4.29 18.38 8.22 21.29a2.6 2.6 0 0 0 2.17.58c3.4-.81 2.66-7.1 1.76-14.44-.25-2.1-.51-4.3-.69-6.45-.56-7.1-2.94-9.74-4.32-10.65a3.81 3.81 0 0 0-2.18-.78Z" fill="#202123"/><path d="M207.56 182.14c-10.19-4.24-18.52 2.43-22 8.25-5.28 8.87-4.22 20.93-5.88 23.56-8.43 13.32-15.86 17.58-15.86 17.58s35.18 11.97 44.38 1.91a64.83 64.83 0 0 1-2.5-20.31c.1-2.94.98-5.55 1.28-8.34.1-.9-1.4-11.07-2.13-11.33 2.11.76 4.7 0 6.78-.5 1.62-.36 3.13-1.1 4.4-2.18 0 0 1.72-4.4-8.47-8.64Z" fill="#fff"/><path d="M207.56 182.14c-10.19-4.24-18.52 2.43-22 8.25-5.28 8.87-4.22 20.93-5.88 23.56-8.43 13.32-15.86 17.58-15.86 17.58s35.18 11.97 44.38 1.91a64.83 64.83 0 0 1-2.5-20.31c.1-2.94.98-5.55 1.28-8.34.1-.9-1.4-11.07-2.13-11.33 2.11.76 4.7 0 6.78-.5 1.62-.36 3.13-1.1 4.4-2.18 0 0 1.72-4.4-8.47-8.64Z" stroke="#202123" stroke-width="2" stroke-linecap="round" stroke-linejoin="round"/><path d="M249.32 280.9h-.16c-14.98-2.81-31-29.8-31.73-30.94a.91.91 0 0 1 .3-1.23.9.9 0 0 1 1.22.32c.16.27 16.28 27.44 30.47 30.16a.88.88 0 0 1 .8.96.89.89 0 0 1-.96.8l.06-.08ZM213.92 216.75l-7.23-1.14a7.82 7.82 0 0 0 4.4 3.55c2.9 1.14 4.13.55 4.13.55l-1.3-2.96ZM199.54 207.6h-.25a.9.9 0 0 1-.61-1.1c.31-1.27.75-2.5 1.32-3.66.21-.27.51-.64 19.72-6.24a.88.88 0 0 1 1.1.6.91.91 0 0 1-.62 1.1c-6.61 1.93-17.24 5.1-18.88 5.77-.2.46-.61 1.77-.93 2.9a.92.92 0 0 1-.85.63Z" fill="#202123"/><path d="M210 204.76a5.68 5.68 0 0 0-1.49-2.68 8.21 8.21 0 0 0-1.76-1.78 2.68 2.68 0 0 0-2.28-.4 2.54 2.54 0 0 0-1.44 1.47 4.7 4.7 0 0 0-.28 2.1 8.9 8.9 0 0 0 4.97 7.34l-.25-.22" fill="#fff"/><path d="M207.67 211.68a.47.47 0 0 1-.27 0 9.62 9.62 0 0 1-5.48-8.1 5.7 5.7 0 0 1 .34-2.48 3.34 3.34 0 0 1 1.99-1.97 3.51 3.51 0 0 1 3.05.5 8.67 8.67 0 0 1 1.88 1.88 6.41 6.41 0 0 1 1.77 3.12.9.9 0 0 1-.76 1.01.89.89 0 0 1-1-.76 4.89 4.89 0 0 0-1.3-2.25 7.56 7.56 0 0 0-1.5-1.5 1.93 1.93 0 0 0-1.5-.33 1.66 1.66 0 0 0-.92.98 3.79 3.79 0 0 0-.22 1.77 8.1 8.1 0 0 0 3.97 6.33.6.6 0 0 1 .44.18 1.08 1.08 0 0 1 .3 1.26.9.9 0 0 1-.8.36ZM166.03 290.88h-.26a.88.88 0 0 1-.65-1.06c1.76-7.26 11.03-48.18 11.16-50.03a.89.89 0 0 1 .88-.88c.23 0 .46.09.62.25.16.17.26.4.26.63 0 1.78-10.58 47.5-11.21 50.4a.87.87 0 0 1-.8.69Z" fill="#202123"/><path d="m296.02 245.1-2.94-23.84-20.11-10.77" fill="#fff"/><path d="M296.02 245.98a.88.88 0 0 1-.86-.78l-2.9-23.38-19.7-10.64a.86.86 0 0 1-.43-.52.88.88 0 0 1 .59-1.1.89.89 0 0 1 .67.06l20.11 10.76a.9.9 0 0 1 .46.68l2.94 23.82a.89.89 0 0 1-.77 1l-.1.1Z" fill="#B8BABF"/><path d="M88.77 215.07S67.7 224.3 60.2 239.34l-19.52-20.71a46.84 46.84 0 0 1 28.1-21.77l19.98 18.21Z" fill="#fff"/><path d="M60.21 240.22a.84.84 0 0 1-.64-.28l-19.52-20.69a.93.93 0 0 1-.14-1.01A48.2 48.2 0 0 1 68.46 196a.85.85 0 0 1 .82.2l20.07 18.21a1 1 0 0 1 .29.82.87.87 0 0 1-.53.66c-.2 0-20.86 9.29-28.12 23.84a.9.9 0 0 1-.67.48l-.11.01Zm-18.4-21.72L60 237.82c7-12.57 22.63-20.8 27.19-22.96l-18.73-17A46.61 46.61 0 0 0 41.8 218.5Z" fill="#B8BABF"/><path d="M73.7 216.64a.96.96 0 0 1-.62-.25l-11.4-11.1a.89.89 0 0 1 1.23-1.28l11.5 11.13a.87.87 0 0 1-.33 1.45.92.92 0 0 1-.38.05ZM63.96 219.52a.92.92 0 0 1-.68-.3l-7.5-8.9a.9.9 0 0 1 .75-1.47.9.9 0 0 1 .61.32l7.49 8.9a.9.9 0 0 1-.1 1.25.85.85 0 0 1-.57.2ZM55.45 220.64a.87.87 0 0 1-.72-.4l-3.7-5.58a.87.87 0 0 1 0-.98c.06-.1.14-.18.24-.24a.9.9 0 0 1 .67-.15.89.89 0 0 1 .57.38l3.74 5.58a.9.9 0 0 1-.25 1.23.83.83 0 0 1-.55.16Z" fill="#B8BABF"/><path d="M455.08 169.91s-13.97 20.19-39.88 21.99l6.8 26.21s29.48 8.9 44.1-14.23l-11.02-33.97Z" fill="#fff"/><path d="M434.86 220.62a51.6 51.6 0 0 1-13.18-1.65.85.85 0 0 1-.6-.62l-6.73-26.24a.83.83 0 0 1 .14-.73.86.86 0 0 1 .65-.37c25.16-1.78 39.05-21.35 39.21-21.62a.89.89 0 0 1 1.58.24l10.95 34a.91.91 0 0 1-.1.75c-8.47 13.36-21.9 16.24-31.92 16.24Zm-12.2-3.24c3.8.98 29.24 6.6 42.4-13.6l-10.3-32.02c-3.7 4.57-17 19-38.44 20.92l6.33 24.7Z" fill="#B8BABF"/><path d="M429.84 215.82a.9.9 0 0 1-.85-.64l-5.1-17.56a.9.9 0 0 1 .6-1.1.9.9 0 0 1 1.1.6l5.1 17.56a.9.9 0 0 1-.06.68.89.89 0 0 1-.79.46ZM439.62 213.6a.9.9 0 0 1-.83-.56c-7.65-18.76-7.6-18.8-6.94-19.37a.9.9 0 0 1 1.26.11 1 1 0 0 1 .21.53c.32 1.25 4.5 11.66 7.1 18.06a.9.9 0 0 1-.8 1.23ZM451.09 211.18a.85.85 0 0 1-.82-.57l-8.88-22.68a.91.91 0 0 1 .01-.68.9.9 0 0 1 .5-.48.9.9 0 0 1 1.15.5l8.87 22.7a.9.9 0 0 1-.5 1.15c-.1.04-.22.06-.33.06ZM457.77 204.84a.9.9 0 0 1-.83-.56l-8.04-20.53a.89.89 0 0 1 .52-1.14.88.88 0 0 1 .67.01.88.88 0 0 1 .46.49l8.04 20.5a.91.91 0 0 1 0 .69.9.9 0 0 1-.81.54Z" fill="#B8BABF"/><path d="M225.35 33.66s-25.11 2.3-33.26 27.07L158.7 41.96a50.67 50.67 0 0 1 37.06-33.08l29.6 24.78Z" fill="#fff"/><path d="M192.09 61.62a.95.95 0 0 1-.44-.1l-33.37-18.77a.9.9 0 0 1-.43-1.04c0-.26 8.06-27.12 37.72-33.7a.9.9 0 0 1 .76.17l29.59 24.8a.89.89 0 0 1-.48 1.57c-.25 0-24.63 2.54-32.52 26.46a.92.92 0 0 1-.51.55c-.1.04-.21.06-.32.06Zm-32.32-20.08 31.82 17.89c7.1-20.08 25.6-25.19 31.7-26.34L195.51 9.84a50.09 50.09 0 0 0-35.74 31.7Z" fill="#B8BABF"/><path d="M208.75 29.56a.92.92 0 0 1-.58-.2l-16.72-14.24a.9.9 0 0 1-.09-1.26.87.87 0 0 1 1.24 0l16.72 14.23a.9.9 0 0 1 .1 1.26.92.92 0 0 1-.66.21ZM201.5 35.7a.9.9 0 0 1-.59-.23l-16.49-14.89a.87.87 0 0 1-.33-.62.88.88 0 0 1 .87-.96.89.89 0 0 1 .65.27l16.49 14.87a.89.89 0 0 1-.6 1.56ZM193.26 40.84a.92.92 0 0 1-.59-.21l-14.73-12.54a.88.88 0 0 1-.31-.6.87.87 0 0 1 .2-.65.9.9 0 0 1 1.27-.1l14.73 12.59a.9.9 0 0 1-.57 1.57v-.06ZM187.7 48.85a.8.8 0 0 1-.48-.15l-17.48-11.26a.89.89 0 0 1-.23-1.2.89.89 0 0 1 1.19-.29l17.48 11.26a.89.89 0 0 1-.48 1.64ZM423.38 101.32c-14.66 0-16.65-6.88-16.74-7.11a.94.94 0 0 1 0-.63l6.14-12.45a.86.86 0 0 1 1.16-.4c.14.06.26.15.35.28 5.1 7.11 17.13 2.86 17.25 2.83a.89.89 0 0 1 .89.17.85.85 0 0 1 .27.87l-3.93 15.68a.9.9 0 0 1-.8.67c-1.61.04-3.17.1-4.6.1Zm-14.91-7.42c.6 1.28 4.05 6.57 18.78 5.46l3.4-13.53c-3.46.92-11.89 2.43-16.84-2.81l-5.34 10.88ZM104.07 118.95a.94.94 0 0 1-.38 0l-21.1-9.27a.9.9 0 0 1-.51-1.05l4.45-17.25a.87.87 0 0 1 .64-.63.85.85 0 0 1 .85.24c2.11 2.17 15.7 7.38 20.75 9.2a.9.9 0 0 1 .57 1.06l-4.46 17.04a.85.85 0 0 1-.48.57.72.72 0 0 1-.33.09Zm-20.08-10.67 19.53 8.55 3.97-15.24c-3.4-1.27-15.23-5.68-19.52-8.47l-3.98 15.16Z" fill="#B8BABF"/></svg>
